# xmcd
# 
# Track frame offsets:
#     150
#     13743
#     28178
#     54598
#     73668
#     97455
#     128810
#     156428
#     186525
#     212423
#     226503
#     247363
#     280030
#     323730
# 
# Disc length: 4559
# 
# Revision: 2
# Processed by: cddbd v1.5.2PL0 Copyright (c) Steve Scherf et al.
# Submitted via: fre:ac v1.0.31
# 
DISCID=d111cd0e
DTITLE=Janis Joplin - Original Album Classics Disc 5
DYEAR=1968
DGENRE=Rock/Pop
TTITLE0=Down On Me
TTITLE1=Flower In The Sun
TTITLE2=I Need A Man To Love
TTITLE3=Bye Bye Baby
TTITLE4=Easy Rider
TTITLE5=Combination Of The Two
TTITLE6=Farewell Song
TTITLE7=Piece Of My Heart
TTITLE8=Catch Me Daddy
TTITLE9=Magic Of Love
TTITLE10=Summertime (From "Porgy and Bess")
TTITLE11=Light Is Faster Than Sound
TTITLE12=Ball And Chain
TTITLE13=Down On Me #2
EXTD=YEAR: 1968
EXTT0=
EXTT1=
EXTT2=
EXTT3=
EXTT4=
EXTT5=
EXTT6=
EXTT7=
EXTT8=
EXTT9=
EXTT10=
EXTT11=
EXTT12=
EXTT13=
PLAYORDER=
